 <svg  version="1.0" xmlns="http://www.w3.org/2000/svg"  width="300.000000pt" height="264.000000pt" viewBox="0 0 300.000000 264.000000"  preserveAspectRatio="xMidYMid meet">  <g transform="translate(0.000000,264.000000) scale(0.100000,-0.100000)" fill="#e5e7eb" stroke="none"> <path d="M1420 2539 c-399 -32 -768 -279 -955 -640 -275 -531 -119 -1186 366 -1532 210 -150 438 -221 704 -220 329 1 612 119 845 353 170 170 284 385 331 625 18 92 18 348 0 440 -74 372 -308 682 -644 851 -200 101 -413 142 -647 123z m380 -68 c409 -110 703 -378 830 -758 227 -681 -214 -1404 -924 -1514 -110 -17 -363 -6 -461 21 -220 59 -370 146 -530 305 -117 117 -166 182 -227 307 -90 184 -123 342 -115 558 12 314 129 576 355 792 165 158 365 259 597 304 105 20 377 12 475 -15z"/> <path d="M1435 2424 c-111 -16 -167 -28 -234 -50 -392 -130 -683 -472 -741 -873 -24 -160 -2 -373 53 -526 48 -133 164 -312 264 -407 267 -251 626 -356 971 -283 362 76 681 355 798 698 84 247 84 487 -2 726 -124 348 -438 622 -797 695 -79 17 -258 28 -312 20z m298 -61 c385 -74 704 -376 803 -759 132 -517 -148 -1053 -646 -1235 -133 -48 -211 -61 -360 -62 -281 0 -509 90 -712 281 -206 195 -314 430 -326 710 -12 290 83 547 281 759 243 261 602 375 960 306z"/> <path d="M1259 1888 c-152 -75 -298 -254 -316 -386 -5 -34 -2 -44 20 -66 29 -29 71 -34 103 -11 12 7 31 41 43 74 42 115 128 205 243 255 89 38 92 40 106 70 11 22 11 33 2 57 -26 63 -85 65 -201 7z m154 -20 c16 -24 -5 -44 -90 -83 -100 -46 -187 -133 -236 -236 -39 -82 -56 -103 -80 -93 -27 10 -29 39 -7 96 51 138 168 256 310 315 61 26 88 26 103 1z"/> <path d="M1405 1617 c-229 -111 -234 -428 -9 -538 126 -62 258 -37 353 66 112 124 105 307 -18 418 -63 57 -97 70 -191 74 -74 4 -91 1 -135 -20z m237 -41 c47 -23 93 -69 121 -121 34 -63 30 -164 -7 -233 -49 -89 -124 -132 -229 -132 -216 0 -333 242 -201 415 28 37 77 71 122 86 43 13 153 5 194 -15z"/> <path d="M1994 1265 c-12 -7 -31 -41 -43 -74 -46 -126 -159 -236 -278 -272 -50 -14 -71 -34 -79 -76 -4 -23 0 -36 19 -58 35 -42 76 -38 184 14 117 58 221 161 277 274 51 104 57 147 23 181 -29 29 -71 34 -103 11z m74 -72 c7 -72 -104 -239 -208 -311 -94 -65 -198 -100 -215 -71 -16 25 5 55 50 71 119 44 223 144 283 271 33 70 39 78 62 75 20 -2 26 -9 28 -35z"/> </g> </svg>
