<!-- icon666.com - MILLIONS vector ICONS FREE --><svg xmlns="http://www.w3.org/2000/svg" id="outline" viewBox="0 0 672 672"><path d="M265.82,168H195.641A27.672,27.672,0,0,0,168,195.641V476.359A27.672,27.672,0,0,0,195.641,504H265.82a27.673,27.673,0,0,0,27.642-27.641V195.641A27.673,27.673,0,0,0,265.82,168Zm13.642,308.359A13.656,13.656,0,0,1,265.82,490H195.641A13.656,13.656,0,0,1,182,476.359V195.641A13.656,13.656,0,0,1,195.641,182H265.82a13.656,13.656,0,0,1,13.642,13.641ZM476.359,168H406.18a27.673,27.673,0,0,0-27.642,27.641V476.359A27.673,27.673,0,0,0,406.18,504h70.179A27.672,27.672,0,0,0,504,476.359V195.641A27.672,27.672,0,0,0,476.359,168ZM490,476.359A13.656,13.656,0,0,1,476.359,490H406.18a13.656,13.656,0,0,1-13.642-13.641V195.641A13.656,13.656,0,0,1,406.18,182h70.179A13.656,13.656,0,0,1,490,195.641ZM336,14A322,322,0,0,0,108.312,563.688,322,322,0,1,0,563.688,108.312,319.89,319.89,0,0,0,336,14ZM553.789,553.789A308,308,0,0,1,118.211,118.211,308,308,0,0,1,553.789,553.789Z"></path></svg>